<?xml version="1.0" encoding="UTF-8" standalone="no"?>
<!DOCTYPE svg PUBLIC "-//W3C//DTD SVG 1.1//EN" "http://www.w3.org/Graphics/SVG/1.1/DTD/svg11.dtd">
<svg width="100%" height="100%" viewBox="0 0 493 493" version="1.1" xmlns="http://www.w3.org/2000/svg" xmlns:xlink="http://www.w3.org/1999/xlink" xml:space="preserve" xmlns:serif="http://www.serif.com/" style="fill-rule:evenodd;clip-rule:evenodd;stroke-linejoin:round;stroke-miterlimit:2;">
    <g id="Artboard1" transform="matrix(1,0,0,1,-119.575,-30.2451)">
        <rect x="119.575" y="30.245" width="492.691" height="492.691" style="fill:none;"/>
        <g transform="matrix(1,0,0,1,0.574662,0.245053)">
            <g transform="matrix(1,0,0,1,15.3424,-3.72164)">
                <path d="M330.136,473.198C329.534,471.354 327.558,470.339 325.702,470.944C323.858,471.546 322.847,473.53 323.448,475.378L324.147,477.526L318.343,479.409L317.636,477.229C317.038,475.382 315.054,474.37 313.206,474.968C311.358,475.565 310.347,477.55 310.944,479.397L311.651,481.581L293.62,487.429C293.284,487.538 293.003,487.456 292.827,487.366C292.683,487.292 292.425,487.116 292.316,486.765C292.296,486.698 292.273,486.632 292.245,486.565L291.605,484.905C290.933,483.163 290.265,481.444 289.612,479.737C289.573,479.632 289.527,479.53 289.48,479.429C286.558,471.737 283.566,463.48 281.648,454.437C281.484,453.69 281.327,452.925 281.179,452.128C284.741,451.093 290.566,450.515 295.226,455.374C296.167,456.351 297.574,456.718 298.874,456.335C300.175,455.956 301.16,454.87 301.425,453.542C301.671,452.308 304.05,442.179 315.585,442.897L317.874,458.635C318.155,460.576 319.917,461.94 321.878,461.729C330.429,460.78 335.077,466.823 337.476,472.065C337.617,472.369 337.554,472.651 337.472,472.83C337.402,472.991 337.226,473.28 336.828,473.409L330.832,475.354L330.136,473.198Z" style="fill:white;"/>
                <path d="M479.409,456.944C474.963,466.073 468.143,473.331 460.21,477.378C452.608,481.253 444.905,481.675 438.515,478.565C436.229,477.456 434.202,475.936 432.491,474.046C432.483,474.034 432.472,474.022 432.464,474.015C428.218,469.436 425.722,462.714 425.437,455.16C425.335,449.495 425.968,444.879 427.491,440.148C428.23,437.78 429.179,435.39 430.304,433.062C437.167,418.988 449.87,409.464 461.917,409.367L462.132,409.367C465.358,409.367 468.401,410.058 471.19,411.421C484.713,418 488.401,438.429 479.409,456.944L479.409,456.944Z" style="fill:white;"/>
                <path d="M267.523,474.042C265.812,475.932 263.784,477.456 261.487,478.565C255.109,481.675 247.405,481.249 239.799,477.374C231.866,473.327 225.045,466.073 220.604,456.944C211.608,438.424 215.296,417.999 228.827,411.409C231.69,410.018 234.761,409.358 238.124,409.354L238.151,409.354C250.186,409.464 262.87,418.979 269.706,433.034C270.788,435.28 271.691,437.561 272.413,439.831C272.62,442.987 272.964,446.14 273.464,449.405C273.433,449.718 273.429,450.034 273.48,450.358C273.804,452.37 274.148,454.194 274.519,455.909C274.085,463.194 271.636,469.6 267.523,474.042L267.523,474.042Z" style="fill:white;"/>
                <path d="M378.925,478.761C378.878,478.761 378.831,478.761 378.788,478.757C363.311,478.069 350.616,476.327 350.491,476.308C350.167,476.265 349.843,476.265 349.522,476.308C349.468,476.315 347.19,476.628 343.44,477.038C343.71,476.636 343.956,476.214 344.151,475.765C345.1,473.604 345.081,471.147 344.104,469.03C339.885,459.804 333.049,454.698 324.62,454.366L322.401,439.112C322.359,438.804 322.265,438.515 322.148,438.237L318.941,416.206C318.464,412.913 317.562,409.659 316.265,406.538C310.62,392.921 300.773,367.413 298.249,349.585C298.245,349.554 298.233,349.527 298.225,349.491C298.198,349.327 298.155,349.171 298.108,349.015C298.089,348.956 298.073,348.898 298.053,348.839C297.987,348.659 297.905,348.491 297.811,348.327C297.796,348.3 297.784,348.269 297.764,348.241C297.268,347.421 296.452,346.8 295.44,346.605C288.382,345.226 281.588,343.527 275.233,341.546C269.499,339.777 263.889,337.679 258.557,335.312C236.869,325.644 225.01,313.562 218.885,305.128C215.139,299.964 216.264,292.558 221.397,288.62L231.225,281.077C232.291,280.26 232.795,278.905 232.53,277.592C232.264,276.276 231.272,275.225 229.971,274.889C228.096,274.401 226.225,273.799 224.409,273.108C220.78,271.725 218.182,268.964 217.092,265.327C216.084,261.96 216.549,258.425 218.35,255.491C242.288,239.413 263.397,248.241 285.745,257.589L287.37,258.268C292.405,260.37 297.663,261.409 302.893,261.409C310.096,261.409 317.237,259.432 323.663,255.534C334.753,248.8 341.745,237.522 342.843,224.589C344.956,199.519 344.226,171.155 343.132,150.651C345.339,150.561 347.632,150.51 350.011,150.51C352.39,150.51 354.683,150.561 356.89,150.651C355.796,171.151 355.066,199.51 357.179,224.589C358.277,237.523 365.265,248.8 376.359,255.534C382.785,259.432 389.925,261.409 397.129,261.409C402.356,261.409 407.617,260.37 412.652,258.268L414.273,257.589C436.621,248.241 457.73,239.413 481.664,255.487C483.469,258.425 483.937,261.96 482.93,265.327C481.84,268.964 479.246,271.725 475.625,273.108C473.848,273.788 471.973,274.385 470.059,274.889C468.762,275.229 467.769,276.28 467.504,277.596C467.238,278.913 467.746,280.264 468.809,281.081L478.633,288.62C483.758,292.561 484.875,299.968 481.125,305.14C480.934,305.405 480.719,305.679 480.512,305.948C478.488,303.562 476.055,301.605 473.238,300.128C470.91,298.925 468.445,298.112 465.914,297.71C455.273,296.023 444.762,301.616 440.352,311.319C438.317,315.811 435.75,320.143 432.719,324.194C432.536,324.44 432.383,324.71 432.266,324.991C421.735,338.807 408.903,345.835 408.778,345.901C407.755,346.452 407.067,347.467 406.946,348.624C400.606,407.269 382.856,466.194 378.926,478.764L378.925,478.761Z" style="fill:white;"/>
                <path d="M456.438,331.901C455.735,331.174 454.786,330.792 453.821,330.792C453.282,330.792 452.739,330.913 452.231,331.159C444.489,334.92 441.657,333.878 440.801,333.253C439.367,332.213 439.082,329.463 439.156,327.721C442.235,323.487 444.863,318.987 446.973,314.326C449.145,309.545 453.477,306.213 458.465,305.104L454.316,311.143C453.215,312.744 453.621,314.932 455.227,316.029C455.836,316.447 456.527,316.647 457.215,316.647C458.336,316.647 459.434,316.112 460.117,315.119L466.813,305.365C467.863,305.67 468.891,306.069 469.875,306.58C471.211,307.28 472.426,308.135 473.512,309.135L467.832,317.022C466.695,318.596 467.055,320.795 468.629,321.932C469.25,322.381 469.969,322.596 470.68,322.596C471.774,322.596 472.848,322.088 473.535,321.135L477.734,315.307C478.516,317.284 478.926,319.401 478.926,321.522C478.926,323.983 478.406,326.354 477.379,328.573C474.07,335.721 470.473,342.202 466.668,347.866C461.395,347.659 457.805,346.381 456.473,344.217C454.567,341.116 457.02,336.162 457.035,336.127C457.778,334.737 457.532,333.034 456.438,331.901Z" style="fill:white;"/>
                <path d="M414.126,159.541C417.54,151.76 427.774,129.557 439.962,113.619C443.571,127.396 450.466,160.318 442.388,186.717C441.786,185.901 441.185,185.1 440.579,184.311C440.4,184.076 440.216,183.846 440.036,183.612C439.591,183.041 439.146,182.475 438.696,181.916C438.478,181.643 438.255,181.373 438.036,181.104C437.607,180.58 437.177,180.061 436.743,179.553C436.532,179.303 436.321,179.053 436.11,178.803C435.587,178.194 435.056,177.592 434.528,176.998C434.415,176.873 434.306,176.744 434.193,176.619C433.552,175.912 432.907,175.221 432.263,174.537C432.075,174.338 431.884,174.147 431.693,173.951C431.224,173.467 430.755,172.987 430.282,172.518C430.048,172.283 429.81,172.053 429.575,171.823C429.13,171.385 428.681,170.959 428.231,170.533C428.001,170.315 427.767,170.096 427.536,169.881C427.005,169.393 426.474,168.912 425.938,168.436C425.794,168.307 425.649,168.174 425.501,168.045C424.821,167.451 424.138,166.873 423.45,166.307C423.255,166.147 423.056,165.99 422.86,165.83C422.356,165.42 421.849,165.014 421.337,164.615C421.087,164.42 420.833,164.229 420.583,164.037C420.106,163.674 419.626,163.319 419.146,162.963C418.896,162.78 418.646,162.596 418.396,162.416C417.841,162.018 417.278,161.631 416.716,161.244C416.544,161.127 416.376,161.006 416.204,160.893C415.509,160.432 414.821,159.983 414.126,159.541L414.126,159.541Z" style="fill:white;"/>
                <path d="M257.621,186.712C249.539,160.317 256.433,127.396 260.043,113.618C272.215,129.544 282.461,151.755 285.879,159.54C285.184,159.982 284.492,160.431 283.809,160.892C283.641,161.005 283.477,161.122 283.309,161.235C282.742,161.622 282.176,162.017 281.613,162.415C281.367,162.591 281.121,162.771 280.875,162.95C280.387,163.306 279.902,163.669 279.422,164.032C279.172,164.22 278.926,164.411 278.68,164.603C278.164,165.005 277.649,165.415 277.141,165.829C276.949,165.985 276.758,166.138 276.566,166.294C275.875,166.864 275.188,167.446 274.508,168.04C274.367,168.165 274.227,168.294 274.086,168.419C273.547,168.896 273.008,169.38 272.473,169.876C272.242,170.091 272.012,170.31 271.781,170.525C271.332,170.95 270.883,171.38 270.437,171.814C270.199,172.044 269.965,172.278 269.726,172.513C269.258,172.982 268.789,173.458 268.324,173.939C268.133,174.138 267.937,174.333 267.746,174.532C267.102,175.212 266.457,175.903 265.82,176.607C265.699,176.739 265.582,176.876 265.461,177.013C264.937,177.595 264.418,178.185 263.902,178.786C263.684,179.04 263.469,179.298 263.25,179.556C262.824,180.06 262.402,180.567 261.98,181.083C261.754,181.36 261.527,181.634 261.305,181.915C260.867,182.462 260.43,183.017 259.992,183.579C259.805,183.821 259.613,184.06 259.426,184.306C258.82,185.099 258.219,185.896 257.621,186.712L257.621,186.712Z" style="fill:white;"/>
            </g>
            <g transform="matrix(1,0,0,1,15.3424,-3.72164)">
                <path d="M413.417,477.546C404.53,478.495 395.425,478.921 386.253,478.87C391.178,462.862 407.48,407.112 413.733,351.16C417.115,349.109 425.167,343.746 433.147,334.926C433.846,336.477 434.901,337.961 436.483,339.121C439.463,341.309 443.494,341.723 448.518,340.371C448.369,342.797 448.732,345.496 450.244,347.989C452.397,351.532 456.287,353.774 461.842,354.699C456.662,361.196 451.201,366.23 445.549,369.699C445.463,369.754 445.377,369.809 445.299,369.871C442.627,371.465 439.866,372.742 437.08,373.672C435.237,374.285 434.241,376.278 434.858,378.121C435.471,379.961 437.459,380.957 439.307,380.344C441.076,379.754 442.838,379.039 444.573,378.219L444.975,381.27C445.061,381.914 445.323,382.524 445.733,383.028L447.42,385.098C451.768,390.45 455.049,396.375 457.24,402.746C443.97,404.797 431.263,415.039 423.963,430C422.686,432.652 421.612,435.363 420.78,438.023C418.495,445.113 418.323,451.269 418.397,455.359C418.678,462.785 420.772,469.558 424.335,474.957C421.272,476.024 417.592,476.899 413.417,477.551L413.417,477.546Z" style="fill:rgb(239,139,24);"/>
                <path d="M278.355,469.968C279.07,472.147 279.812,474.28 280.569,476.366C278.792,475.94 277.159,475.464 275.671,474.944C276.694,473.393 277.589,471.729 278.355,469.968L278.355,469.968Z" style="fill:rgb(239,139,24);"/>
                <path d="M252.613,385.089L254.285,383.015C254.691,382.515 254.949,381.909 255.031,381.269L259.999,343.585C260.535,343.804 261.101,343.999 261.644,344.214C262.851,344.69 264.066,345.155 265.288,345.604C266.07,345.889 266.851,346.171 267.64,346.444C268.847,346.866 270.058,347.268 271.277,347.659C271.902,347.862 272.507,348.085 273.14,348.28C279.015,350.112 285.245,351.694 291.675,353.026C294.784,371.409 304.234,395.905 309.761,409.233C310.839,411.819 311.581,414.503 311.972,417.214L314.648,435.573C304.593,435.436 298.851,441.28 296.101,446.846C290.886,443.779 285.023,443.627 279.949,444.924C279.703,442.889 279.511,440.881 279.39,438.865C278.921,431.51 279.14,423.822 280.062,415.365C280.273,413.435 278.878,411.701 276.949,411.49C275.058,411.295 273.285,412.674 273.074,414.603C272.738,417.685 272.523,420.646 272.367,423.56C264.918,412.287 253.929,404.529 242.789,402.744C244.976,396.373 248.261,390.447 252.613,385.088L252.613,385.089Z" style="fill:rgb(239,139,24);"/>
                <path d="M238.941,230.989C241.835,226.399 244.566,221.653 247.453,216.626C251.253,210.009 255.187,203.169 259.617,196.556C260.855,194.701 262.101,192.912 263.359,191.197C267.711,185.251 272.187,180.127 276.914,175.693C277.035,175.579 277.16,175.466 277.281,175.349C282,170.97 286.965,167.275 292.308,164.15C304.546,156.998 318.687,152.787 335.546,151.271C335.652,151.263 335.757,151.251 335.863,151.244C336.937,171.494 337.652,199.4 335.577,223.978C334.679,234.568 328.956,243.802 319.874,249.314C310.796,254.825 299.968,255.642 290.163,251.552L288.546,250.876C274.812,245.13 260.8,239.267 245.995,239.267C241.386,239.267 236.694,239.837 231.917,241.154C234.206,238.193 236.519,234.837 238.941,230.99L238.941,230.989Z" style="fill:rgb(239,139,24);"/>
                <path d="M364.142,151.244C364.244,151.252 364.345,151.264 364.447,151.271C381.31,152.787 395.459,156.998 407.697,164.15C409.244,165.057 410.763,166.01 412.251,167.018L412.255,167.022C421.189,173.049 429.099,180.893 436.642,191.198C437.9,192.916 439.146,194.701 440.384,196.557C440.384,196.557 440.384,196.561 440.388,196.561C444.814,203.17 448.748,210.01 452.548,216.627C455.439,221.654 458.17,226.404 461.06,230.986C463.482,234.834 465.798,238.189 468.087,241.154C447.954,235.603 429.466,243.337 411.45,250.873L409.833,251.548C400.029,255.638 389.2,254.822 380.122,249.31C371.04,243.798 365.317,234.564 364.419,223.974C362.353,199.392 363.068,171.49 364.142,151.244L364.142,151.244Z" style="fill:rgb(239,139,24);"/>
                <path d="M241.746,84.249C243.496,79.081 247.476,75.108 252.664,73.343C257.875,71.57 263.488,72.296 268.059,75.343C302.032,97.98 322.922,132.323 329.653,144.597C315.54,146.374 303.219,150.093 292.231,155.882C287.949,146.167 275.649,119.874 261.18,103.53C260.316,102.554 259,102.112 257.723,102.378C256.445,102.64 255.406,103.565 255,104.8C254.289,106.952 238.012,157.159 252.5,194.136C248.375,200.429 244.703,206.812 241.145,212.999C239.77,215.389 238.434,217.713 237.102,219.983C221.911,159.065 233.301,109.143 241.746,84.253L241.746,84.249Z" style="fill:rgb(239,139,24);"/>
                <path d="M431.951,75.342C436.521,72.295 442.131,71.569 447.346,73.342C452.534,75.108 456.514,79.084 458.264,84.248C466.709,109.15 478.096,159.064 462.909,219.978C461.577,217.709 460.241,215.384 458.866,212.994C455.307,206.802 451.631,200.424 447.51,194.131C461.998,157.158 445.721,106.951 445.01,104.795C444.6,103.556 443.565,102.634 442.288,102.373C441.01,102.111 439.694,102.549 438.831,103.525C424.339,119.892 412.054,146.162 407.78,155.877C396.792,150.084 384.464,146.369 370.346,144.592C377.076,132.322 397.983,97.979 431.951,75.342L431.951,75.342Z" style="fill:rgb(239,139,24);"/>
            </g>
            <g transform="matrix(1,0,0,1,15.3424,-3.72164)">
                <path d="M343.87,267.91C347.226,270.965 352.776,270.965 356.132,267.91C359.011,265.289 361.648,261.988 363.855,258.812C367.3,253.855 363.23,247.5 356.612,247.5L349.999,247.5L343.39,247.504C336.773,247.504 332.702,253.86 336.148,258.816C338.355,261.992 340.987,265.289 343.87,267.91L343.87,267.91Z" style="fill-rule:nonzero;"/>
            </g>
            <g transform="matrix(1,0,0,1,15.3424,-3.72164)">
                <path d="M313.03,229.04C313.03,236.583 308.706,242.696 303.374,242.696C298.038,242.696 293.718,236.583 293.718,229.04C293.718,221.497 298.038,215.38 303.374,215.38C308.706,215.38 313.03,221.497 313.03,229.04" style="fill-rule:nonzero;"/>
            </g>
            <g transform="matrix(1,0,0,1,15.3424,-3.72164)">
                <path d="M406.27,229.04C406.27,236.583 401.946,242.696 396.614,242.696C391.278,242.696 386.958,236.583 386.958,229.04C386.958,221.497 391.278,215.38 396.614,215.38C401.946,215.38 406.27,221.497 406.27,229.04" style="fill-rule:nonzero;"/>
            </g>
            <g transform="matrix(1,0,0,1,15.3424,-3.72164)">
                <path d="M244.12,442.87C239.12,445.304 237.991,453.284 241.601,460.698C245.206,468.112 252.183,472.151 257.183,469.717C262.183,467.284 263.311,459.304 259.702,451.89C256.097,444.475 249.12,440.441 244.12,442.87Z" style="fill-rule:nonzero;"/>
            </g>
            <g transform="matrix(1,0,0,1,15.3424,-3.72164)">
                <path d="M245.6,426.33C243.53,422.072 238.397,420.299 234.139,422.373C229.881,424.443 228.108,429.576 230.182,433.834C232.252,438.092 237.385,439.865 241.643,437.791C245.901,435.721 247.674,430.588 245.6,426.33Z" style="fill-rule:nonzero;"/>
            </g>
            <g transform="matrix(1,0,0,1,15.3424,-3.72164)">
                <path d="M257.52,432.72C259.922,431.552 260.922,428.658 259.754,426.255C258.586,423.853 255.692,422.853 253.29,424.021C250.887,425.189 249.887,428.083 251.055,430.486C252.223,432.888 255.118,433.888 257.52,432.72Z" style="fill-rule:nonzero;"/>
            </g>
            <g transform="matrix(1,0,0,1,15.3424,-3.72164)">
                <path d="M223.62,438.46C221.218,439.628 220.218,442.522 221.386,444.925C222.554,447.327 225.448,448.327 227.85,447.159C230.253,445.991 231.253,443.097 230.085,440.694C228.917,438.288 226.022,437.288 223.62,438.46Z" style="fill-rule:nonzero;"/>
            </g>
            <g transform="matrix(1,0,0,1,15.3424,-3.72164)">
                <path d="M455.88,442.87C460.876,445.304 462.005,453.284 458.4,460.698C454.79,468.112 447.813,472.151 442.813,469.717C437.817,467.288 436.688,459.304 440.294,451.89C443.903,444.475 450.88,440.441 455.88,442.87" style="fill-rule:nonzero;"/>
            </g>
            <g transform="matrix(1,0,0,1,15.3424,-3.72164)">
                <path d="M465.85,422.37C461.592,420.3 456.459,422.069 454.389,426.327C452.319,430.585 454.088,435.718 458.346,437.788C462.604,439.858 467.737,438.089 469.807,433.831C471.881,429.573 470.108,424.44 465.85,422.37Z" style="fill-rule:nonzero;"/>
            </g>
            <g transform="matrix(1,0,0,1,15.3424,-3.72164)">
                <path d="M442.47,432.72C444.872,433.888 447.767,432.888 448.935,430.486C450.103,428.083 449.103,425.189 446.7,424.021C444.298,422.853 441.404,423.853 440.236,426.255C439.072,428.658 440.072,431.552 442.47,432.72Z" style="fill-rule:nonzero;"/>
            </g>
            <g transform="matrix(1,0,0,1,15.3424,-3.72164)">
                <path d="M469.9,440.69C468.732,443.092 469.732,445.987 472.134,447.155C474.537,448.323 477.431,447.323 478.599,444.92C479.767,442.518 478.767,439.624 476.365,438.456C473.962,437.288 471.068,438.288 469.9,440.69Z" style="fill-rule:nonzero;"/>
            </g>
            <g transform="matrix(1,0,0,1,15.3424,-3.72164)">
                <path d="M369.59,275.17C367.649,275.17 366.074,276.744 366.074,278.686C366.074,279.373 365.25,280.236 364.008,280.85C362.832,281.44 361.336,281.764 359.797,281.764C356.024,281.764 353.52,279.912 353.52,278.686C353.52,276.744 351.946,275.17 350.004,275.17C348.063,275.17 346.489,276.744 346.489,278.686C346.489,279.912 343.985,281.764 340.211,281.764C338.672,281.764 337.176,281.44 335.981,280.842C334.758,280.24 333.934,279.373 333.934,278.686C333.934,276.744 332.36,275.17 330.418,275.17C328.477,275.17 326.903,276.744 326.903,278.686C326.903,281.408 328.301,283.936 330.707,285.791C330.645,286.627 330.614,287.459 330.614,288.287C330.614,293.483 331.77,298.467 333.961,302.701C333.961,302.705 333.965,302.705 333.969,302.709C337.559,309.686 343.555,313.85 350.008,313.85C356.481,313.85 362.477,309.682 366.051,302.705L366.055,302.701C366.055,302.701 366.055,302.697 366.059,302.693C366.059,302.689 366.063,302.689 366.063,302.686C366.063,302.682 366.063,302.682 366.067,302.678C368.25,298.447 369.403,293.471 369.403,288.287C369.403,287.459 369.368,286.627 369.309,285.791C371.719,283.935 373.114,281.408 373.114,278.689C373.106,276.744 371.532,275.17 369.59,275.17L369.59,275.17Z"/>
            </g>
            <g transform="matrix(1,0,0,1,15.3424,-3.72164)">
                <path d="M474.27,405.1C471.231,403.612 467.969,402.764 464.555,402.471C462.118,394.545 458.208,387.209 452.879,380.651L451.817,379.35L451.164,374.413C458.145,369.714 464.777,362.983 470.91,354.331C471.156,354.128 471.375,353.893 471.563,353.624C476.012,347.245 480.195,339.847 483.997,331.636C485.469,328.452 486.215,325.054 486.215,321.531C486.215,318.402 485.587,315.281 484.411,312.394C485.266,311.339 486.09,310.289 486.829,309.265C492.887,300.91 491.173,289.394 482.923,283.05L478.399,279.577C483.891,277.39 487.985,272.949 489.661,267.347C491.29,261.906 490.474,256.175 487.45,251.484C487.341,251.164 487.185,250.856 486.982,250.574C485.982,249.168 484.798,247.902 483.474,246.824C478.22,242.512 473.412,236.762 467.99,228.308C486.181,162.663 473.927,108.538 464.927,81.998C462.466,74.744 456.884,69.166 449.615,66.689C442.311,64.201 434.459,65.228 428.053,69.494C389.58,95.131 367.854,133.963 362.76,143.83C362.159,143.783 361.553,143.74 360.948,143.701C360.627,143.682 360.311,143.709 360.002,143.771C356.862,143.584 353.514,143.482 350.006,143.482C346.502,143.482 343.155,143.584 340.022,143.768C339.709,143.705 339.393,143.678 339.069,143.697C338.459,143.736 337.846,143.779 337.237,143.826C332.143,133.955 310.432,95.127 271.956,69.49C265.554,65.225 257.698,64.205 250.397,66.685C243.127,69.162 237.545,74.74 235.085,81.994C226.085,108.537 213.831,162.662 232.022,228.314C226.589,236.787 221.784,242.537 216.569,246.818C215.261,247.881 214.077,249.139 213.054,250.545C212.843,250.838 212.683,251.154 212.565,251.483C209.538,256.193 208.726,261.917 210.355,267.35C212.034,272.951 216.136,277.397 221.632,279.58L217.108,283.052C208.843,289.392 207.124,300.907 213.186,309.271C219.585,318.076 231.709,330.517 253.299,340.634L248.19,379.38L247.147,380.677C241.823,387.228 237.912,394.556 235.475,402.482C232.045,402.779 228.799,403.615 225.744,405.103C208.732,413.384 203.588,438.025 214.275,460.037C219.385,470.529 227.314,478.92 236.603,483.654C241.865,486.338 247.216,487.685 252.365,487.685C256.627,487.685 260.748,486.76 264.556,484.904C266.877,483.783 268.998,482.346 270.877,480.635C274.373,482.119 278.533,483.279 283.51,484.166C283.939,485.287 284.373,486.408 284.814,487.545L285.424,489.119C286.123,491.185 287.572,492.869 289.525,493.865C290.717,494.471 292.002,494.779 293.295,494.779C294.162,494.779 295.033,494.642 295.881,494.361L317.244,487.435L322.423,485.756C336.306,485.103 347.54,483.681 350.001,483.353C352.513,483.685 364.177,485.162 378.489,485.799C379.486,485.834 380.443,485.861 381.384,485.869L381.454,485.869C381.458,485.869 381.466,485.873 381.47,485.873C381.474,485.873 381.478,485.869 381.485,485.869C383.544,485.92 385.599,485.947 387.657,485.947C396.579,485.947 405.493,485.474 414.321,484.525C420.232,483.611 425.212,482.291 429.126,480.631C431.013,482.35 433.126,483.779 435.435,484.896C439.247,486.756 443.372,487.678 447.638,487.678C452.786,487.678 458.138,486.33 463.4,483.646C472.685,478.912 480.615,470.525 485.728,460.025C496.419,438.025 491.275,413.384 474.271,405.107L474.27,405.1ZM456.438,331.901C455.735,331.174 454.786,330.792 453.821,330.792C453.282,330.792 452.739,330.913 452.231,331.159C444.489,334.92 441.657,333.878 440.801,333.253C439.367,332.213 439.082,329.463 439.156,327.721C442.235,323.487 444.863,318.987 446.973,314.326C449.145,309.545 453.477,306.213 458.465,305.104L454.316,311.143C453.215,312.744 453.621,314.932 455.227,316.029C455.836,316.447 456.527,316.647 457.215,316.647C458.336,316.647 459.434,316.112 460.117,315.119L466.813,305.365C467.863,305.67 468.891,306.069 469.875,306.58C471.211,307.28 472.426,308.135 473.512,309.135L467.832,317.022C466.695,318.596 467.055,320.795 468.629,321.932C469.25,322.381 469.969,322.596 470.68,322.596C471.774,322.596 472.848,322.088 473.535,321.135L477.734,315.307C478.516,317.284 478.926,319.401 478.926,321.522C478.926,323.983 478.406,326.354 477.379,328.573C474.07,335.721 470.473,342.202 466.668,347.866C461.395,347.659 457.805,346.381 456.473,344.217C454.567,341.116 457.02,336.162 457.035,336.127C457.778,334.737 457.532,333.034 456.438,331.901L456.438,331.901ZM414.126,159.541C417.54,151.76 427.774,129.557 439.962,113.619C443.571,127.396 450.466,160.318 442.388,186.717C441.786,185.901 441.185,185.1 440.579,184.311C440.4,184.076 440.216,183.846 440.036,183.612C439.591,183.041 439.146,182.475 438.696,181.916C438.478,181.643 438.255,181.373 438.036,181.104C437.607,180.58 437.177,180.061 436.743,179.553C436.532,179.303 436.321,179.053 436.11,178.803C435.587,178.194 435.056,177.592 434.528,176.998C434.415,176.873 434.306,176.744 434.193,176.619C433.552,175.912 432.907,175.221 432.263,174.537C432.075,174.338 431.884,174.147 431.693,173.951C431.224,173.467 430.755,172.987 430.282,172.518C430.048,172.283 429.81,172.053 429.575,171.823C429.13,171.385 428.681,170.959 428.231,170.533C428.001,170.315 427.767,170.096 427.536,169.881C427.005,169.393 426.474,168.912 425.938,168.436C425.794,168.307 425.649,168.174 425.501,168.045C424.821,167.451 424.138,166.873 423.45,166.307C423.255,166.147 423.056,165.99 422.86,165.83C422.356,165.42 421.849,165.014 421.337,164.615C421.087,164.42 420.833,164.229 420.583,164.037C420.106,163.674 419.626,163.319 419.146,162.963C418.896,162.78 418.646,162.596 418.396,162.416C417.841,162.018 417.278,161.631 416.716,161.244C416.544,161.127 416.376,161.006 416.204,160.893C415.509,160.432 414.821,159.983 414.126,159.541L414.126,159.541ZM364.142,151.244C364.244,151.252 364.345,151.264 364.447,151.271C381.31,152.787 395.459,156.998 407.697,164.15C409.244,165.057 410.763,166.01 412.251,167.018L412.255,167.022C421.189,173.049 429.099,180.893 436.642,191.198C437.9,192.916 439.146,194.701 440.384,196.557C440.384,196.557 440.384,196.561 440.388,196.561C444.814,203.17 448.748,210.01 452.548,216.627C455.439,221.654 458.17,226.404 461.06,230.986C463.482,234.834 465.798,238.189 468.087,241.154C447.954,235.603 429.466,243.337 411.45,250.873L409.833,251.548C400.029,255.638 389.2,254.822 380.122,249.31C371.04,243.798 365.317,234.564 364.419,223.974C362.353,199.392 363.068,171.49 364.142,151.244L364.142,151.244ZM431.951,75.342C436.521,72.295 442.131,71.569 447.346,73.342C452.534,75.108 456.514,79.084 458.264,84.248C466.709,109.15 478.096,159.064 462.909,219.978C461.577,217.709 460.241,215.384 458.866,212.994C455.307,206.802 451.631,200.424 447.51,194.131C461.998,157.158 445.721,106.951 445.01,104.795C444.6,103.556 443.565,102.634 442.288,102.373C441.01,102.111 439.694,102.549 438.831,103.525C424.339,119.892 412.054,146.162 407.78,155.877C396.792,150.084 384.464,146.369 370.346,144.592C377.076,132.322 397.983,97.979 431.951,75.342L431.951,75.342ZM257.621,186.712C249.539,160.317 256.433,127.396 260.043,113.618C272.215,129.544 282.461,151.755 285.879,159.54C285.184,159.982 284.492,160.431 283.809,160.892C283.641,161.005 283.477,161.122 283.309,161.235C282.742,161.622 282.176,162.017 281.613,162.415C281.367,162.591 281.121,162.771 280.875,162.95C280.387,163.306 279.902,163.669 279.422,164.032C279.172,164.22 278.926,164.411 278.68,164.603C278.164,165.005 277.649,165.415 277.141,165.829C276.949,165.985 276.758,166.138 276.566,166.294C275.875,166.864 275.188,167.446 274.508,168.04C274.367,168.165 274.227,168.294 274.086,168.419C273.547,168.896 273.008,169.38 272.473,169.876C272.242,170.091 272.012,170.31 271.781,170.525C271.332,170.95 270.883,171.38 270.437,171.814C270.199,172.044 269.965,172.278 269.726,172.513C269.258,172.982 268.789,173.458 268.324,173.939C268.133,174.138 267.937,174.333 267.746,174.532C267.102,175.212 266.457,175.903 265.82,176.607C265.699,176.739 265.582,176.876 265.461,177.013C264.937,177.595 264.418,178.185 263.902,178.786C263.684,179.04 263.469,179.298 263.25,179.556C262.824,180.06 262.402,180.567 261.98,181.083C261.754,181.36 261.527,181.634 261.305,181.915C260.867,182.462 260.43,183.017 259.992,183.579C259.805,183.821 259.613,184.06 259.426,184.306C258.82,185.099 258.219,185.896 257.621,186.712L257.621,186.712ZM238.941,230.989C241.835,226.399 244.566,221.653 247.453,216.626C251.253,210.009 255.187,203.169 259.617,196.556C260.855,194.701 262.101,192.912 263.359,191.197C267.711,185.251 272.187,180.127 276.914,175.693C277.035,175.579 277.16,175.466 277.281,175.349C282,170.97 286.965,167.275 292.308,164.15C304.546,156.998 318.687,152.787 335.546,151.271C335.652,151.263 335.757,151.251 335.863,151.244C336.937,171.494 337.652,199.4 335.577,223.978C334.679,234.568 328.956,243.802 319.874,249.314C310.796,254.825 299.968,255.642 290.163,251.552L288.546,250.876C274.812,245.13 260.8,239.267 245.995,239.267C241.386,239.267 236.694,239.837 231.917,241.154C234.206,238.193 236.519,234.837 238.941,230.99L238.941,230.989ZM241.746,84.249C243.496,79.081 247.476,75.108 252.664,73.343C257.875,71.57 263.488,72.296 268.059,75.343C302.032,97.98 322.922,132.323 329.653,144.597C315.54,146.374 303.219,150.093 292.231,155.882C287.949,146.167 275.649,119.874 261.18,103.53C260.316,102.554 259,102.112 257.723,102.378C256.445,102.64 255.406,103.565 255,104.8C254.289,106.952 238.012,157.159 252.5,194.136C248.375,200.429 244.703,206.812 241.145,212.999C239.77,215.389 238.434,217.713 237.102,219.983C221.911,159.065 233.301,109.143 241.746,84.253L241.746,84.249ZM252.613,385.089L254.285,383.015C254.691,382.515 254.949,381.909 255.031,381.269L259.999,343.585C260.535,343.804 261.101,343.999 261.644,344.214C262.851,344.69 264.066,345.155 265.288,345.604C266.07,345.889 266.851,346.171 267.64,346.444C268.847,346.866 270.058,347.268 271.277,347.659C271.902,347.862 272.507,348.085 273.14,348.28C279.015,350.112 285.245,351.694 291.675,353.026C294.784,371.409 304.234,395.905 309.761,409.233C310.839,411.819 311.581,414.503 311.972,417.214L314.648,435.573C304.593,435.436 298.851,441.28 296.101,446.846C290.886,443.779 285.023,443.627 279.949,444.924C279.703,442.889 279.511,440.881 279.39,438.865C278.921,431.51 279.14,423.822 280.062,415.365C280.273,413.435 278.878,411.701 276.949,411.49C275.058,411.295 273.285,412.674 273.074,414.603C272.738,417.685 272.523,420.646 272.367,423.56C264.918,412.287 253.929,404.529 242.789,402.744C244.976,396.373 248.261,390.447 252.613,385.088L252.613,385.089ZM330.136,473.198C329.534,471.354 327.558,470.339 325.702,470.944C323.858,471.546 322.847,473.53 323.448,475.378L324.147,477.526L318.343,479.409L317.636,477.229C317.038,475.382 315.054,474.37 313.206,474.968C311.358,475.565 310.347,477.55 310.944,479.397L311.651,481.581L293.62,487.429C293.284,487.538 293.003,487.456 292.827,487.366C292.683,487.292 292.425,487.116 292.316,486.765C292.296,486.698 292.273,486.632 292.245,486.565L291.605,484.905C290.933,483.163 290.265,481.444 289.612,479.737C289.573,479.632 289.527,479.53 289.48,479.429C286.558,471.737 283.566,463.48 281.648,454.437C281.484,453.69 281.327,452.925 281.179,452.128C284.741,451.093 290.566,450.515 295.226,455.374C296.167,456.351 297.574,456.718 298.874,456.335C300.175,455.956 301.16,454.87 301.425,453.542C301.671,452.308 304.05,442.179 315.585,442.897L317.874,458.635C318.155,460.576 319.917,461.94 321.878,461.729C330.429,460.78 335.077,466.823 337.476,472.065C337.617,472.369 337.554,472.651 337.472,472.83C337.402,472.991 337.226,473.28 336.828,473.409L330.832,475.354L330.136,473.198ZM267.523,474.042C265.812,475.932 263.784,477.456 261.487,478.565C255.109,481.675 247.405,481.249 239.799,477.374C231.866,473.327 225.045,466.073 220.604,456.944C211.608,438.424 215.296,417.999 228.827,411.409C231.69,410.018 234.761,409.358 238.124,409.354L238.151,409.354C250.186,409.464 262.87,418.979 269.706,433.034C270.788,435.28 271.691,437.561 272.413,439.831C272.62,442.987 272.964,446.14 273.464,449.405C273.433,449.718 273.429,450.034 273.48,450.358C273.804,452.37 274.148,454.194 274.519,455.909C274.085,463.194 271.636,469.6 267.523,474.042L267.523,474.042ZM278.355,469.968C279.07,472.147 279.812,474.28 280.569,476.366C278.792,475.94 277.159,475.464 275.671,474.944C276.694,473.393 277.589,471.729 278.355,469.968L278.355,469.968ZM378.925,478.761C378.878,478.761 378.831,478.761 378.788,478.757C363.311,478.069 350.616,476.327 350.491,476.308C350.167,476.265 349.843,476.265 349.522,476.308C349.468,476.315 347.19,476.628 343.44,477.038C343.71,476.636 343.956,476.214 344.151,475.765C345.1,473.604 345.081,471.147 344.104,469.03C339.885,459.804 333.049,454.698 324.62,454.366L322.401,439.112C322.359,438.804 322.265,438.515 322.148,438.237L318.941,416.206C318.464,412.913 317.562,409.659 316.265,406.538C310.62,392.921 300.773,367.413 298.249,349.585C298.245,349.554 298.233,349.527 298.225,349.491C298.198,349.327 298.155,349.171 298.108,349.015C298.089,348.956 298.073,348.898 298.053,348.839C297.987,348.659 297.905,348.491 297.811,348.327C297.796,348.3 297.784,348.269 297.764,348.241C297.268,347.421 296.452,346.8 295.44,346.605C288.382,345.226 281.588,343.527 275.233,341.546C269.499,339.777 263.889,337.679 258.557,335.312C236.869,325.644 225.01,313.562 218.885,305.128C215.139,299.964 216.264,292.558 221.397,288.62L231.225,281.077C232.291,280.26 232.795,278.905 232.53,277.592C232.264,276.276 231.272,275.225 229.971,274.889C228.096,274.401 226.225,273.799 224.409,273.108C220.78,271.725 218.182,268.964 217.092,265.327C216.084,261.96 216.549,258.425 218.35,255.491C242.288,239.413 263.397,248.241 285.745,257.589L287.37,258.268C292.405,260.37 297.663,261.409 302.893,261.409C310.096,261.409 317.237,259.432 323.663,255.534C334.753,248.8 341.745,237.522 342.843,224.589C344.956,199.519 344.226,171.155 343.132,150.651C345.339,150.561 347.632,150.51 350.011,150.51C352.39,150.51 354.683,150.561 356.89,150.651C355.796,171.151 355.066,199.51 357.179,224.589C358.277,237.523 365.265,248.8 376.359,255.534C382.785,259.432 389.925,261.409 397.129,261.409C402.356,261.409 407.617,260.37 412.652,258.268L414.273,257.589C436.621,248.241 457.73,239.413 481.664,255.487C483.469,258.425 483.937,261.96 482.93,265.327C481.84,268.964 479.246,271.725 475.625,273.108C473.848,273.788 471.973,274.385 470.059,274.889C468.762,275.229 467.769,276.28 467.504,277.596C467.238,278.913 467.746,280.264 468.809,281.081L478.633,288.62C483.758,292.561 484.875,299.968 481.125,305.14C480.934,305.405 480.719,305.679 480.512,305.948C478.488,303.562 476.055,301.605 473.238,300.128C470.91,298.925 468.445,298.112 465.914,297.71C455.273,296.023 444.762,301.616 440.352,311.319C438.317,315.811 435.75,320.143 432.719,324.194C432.536,324.44 432.383,324.71 432.266,324.991C421.735,338.807 408.903,345.835 408.778,345.901C407.755,346.452 407.067,347.467 406.946,348.624C400.606,407.269 382.856,466.194 378.926,478.764L378.925,478.761ZM413.417,477.546C404.53,478.495 395.425,478.921 386.253,478.87C391.178,462.862 407.48,407.112 413.733,351.16C417.115,349.109 425.167,343.746 433.147,334.926C433.846,336.477 434.901,337.961 436.483,339.121C439.463,341.309 443.494,341.723 448.518,340.371C448.369,342.797 448.732,345.496 450.244,347.989C452.397,351.532 456.287,353.774 461.842,354.699C456.662,361.196 451.201,366.23 445.549,369.699C445.463,369.754 445.377,369.809 445.299,369.871C442.627,371.465 439.866,372.742 437.08,373.672C435.237,374.285 434.241,376.278 434.858,378.121C435.471,379.961 437.459,380.957 439.307,380.344C441.076,379.754 442.838,379.039 444.573,378.219L444.975,381.27C445.061,381.914 445.323,382.524 445.733,383.028L447.42,385.098C451.768,390.45 455.049,396.375 457.24,402.746C443.97,404.797 431.263,415.039 423.963,430C422.686,432.652 421.612,435.363 420.78,438.023C418.495,445.113 418.323,451.269 418.397,455.359C418.678,462.785 420.772,469.558 424.335,474.957C421.272,476.024 417.592,476.899 413.417,477.551L413.417,477.546ZM479.409,456.944C474.963,466.073 468.143,473.331 460.21,477.378C452.608,481.253 444.905,481.675 438.515,478.565C436.229,477.456 434.202,475.936 432.491,474.046C432.483,474.034 432.472,474.022 432.464,474.015C428.218,469.436 425.722,462.714 425.437,455.16C425.335,449.495 425.968,444.879 427.491,440.148C428.23,437.78 429.179,435.39 430.304,433.062C437.167,418.988 449.87,409.464 461.917,409.367L462.132,409.367C465.358,409.367 468.401,410.058 471.19,411.421C484.713,418 488.401,438.429 479.409,456.944L479.409,456.944Z" style="fill-rule:nonzero;"/>
            </g>
            <g transform="matrix(1,0,0,1,15.3424,-3.72164)">
                <path d="M359.801,299.475C359.801,299.479 359.797,299.479 359.797,299.483C357.449,304.073 353.789,306.815 350.004,306.815C346.234,306.815 342.57,304.073 340.207,299.475C340.207,299.471 340.207,299.471 340.203,299.467C339.887,298.854 339.606,298.213 339.348,297.557C342.164,294.006 345.899,291.834 350,291.834C354.101,291.834 357.836,294.01 360.652,297.557C360.394,298.213 360.113,298.854 359.796,299.467C359.8,299.471 359.8,299.475 359.8,299.475L359.801,299.475Z" style="fill:rgb(239,24,31);"/>
            </g>
        </g>
    </g>
</svg>
